grf
version=1
nRows=9
nColumns=37
inDegrees=no
endheader
time	ground_force_1_vx	ground_force_1_vy	ground_force_1_vz	ground_force_1_px	ground_force_1_py	ground_force_1_pz	ground_moment_1_mx	ground_moment_1_my	ground_moment_1_mz	ground_force_2_vx	ground_force_2_vy	ground_force_2_vz	ground_force_2_px	ground_force_2_py	ground_force_2_pz	ground_moment_2_mx	ground_moment_2_my	ground_moment_2_mz	ground_force_3_vx	ground_force_3_vy	ground_force_3_vz	ground_force_3_px	ground_force_3_py	ground_force_3_pz	ground_moment_3_mx	ground_moment_3_my	ground_moment_3_mz	ground_force_4_vx	ground_force_4_vy	ground_force_4_vz	ground_force_4_px	ground_force_4_py	ground_force_4_pz	ground_moment_4_mx	ground_moment_4_my	ground_moment_4_mz
      0.00000000	      0.00000000	     -0.00000000	      0.00000000	      0.00000000	      0.00000000	      0.00000000	      0.00000000	      0.00000000	      0.00000000	     -1.15973663	     29.37182808	   -485.24261475	   -356.40057986	  -1061.56202329	      0.00000000	      0.00000000	      0.00000000	   1422.74194833	      0.68571128	    -26.44877058	   -329.41040039	   -339.78484024	   -759.17302925	      0.00000000	      0.00000000	     -0.00000000	   -860.81261719	      0.00000000	     -0.00000000	      0.00000000	      0.00000000	      0.00000000	      0.00000000	      0.00000000	      0.00000000	      0.00000000
      0.01000000	      0.00000000	     -0.00000000	      0.00000000	      0.00000000	      0.00000000	      0.00000000	      0.00000000	      0.00000000	      0.00000000	     -0.93992865	     29.44795227	   -485.88092041	   -355.71083550	  -1061.93251638	      0.00000000	      0.00000000	      0.00000000	   1416.55475312	      0.62097318	    -26.47957044	   -329.50506592	   -339.49325528	   -760.12973622	      0.00000000	      0.00000000	     -0.00000000	   -856.69433975	      0.00000000	     -0.00000000	      0.00000000	      0.00000000	      0.00000000	      0.00000000	      0.00000000	      0.00000000	      0.00000000
      0.02000000	      0.00000000	     -0.00000000	      0.00000000	      0.00000000	      0.00000000	      0.00000000	      0.00000000	      0.00000000	      0.00000000	     -0.73134649	     29.25860023	   -485.71685791	   -355.31547798	  -1062.24657511	      0.00000000	      0.00000000	      0.00000000	   1378.54809503	      0.62761513	    -26.82605940	   -331.18338013	   -339.45334212	   -759.97670122	      0.00000000	      0.00000000	     -0.00000000	   -881.62994452	      0.00000000	     -0.00000000	      0.00000000	      0.00000000	      0.00000000	      0.00000000	      0.00000000	      0.00000000	      0.00000000
      0.03000000	      0.00000000	     -0.00000000	      0.00000000	      0.00000000	      0.00000000	      0.00000000	      0.00000000	      0.00000000	      0.00000000	     -0.01181303	     29.43679047	   -484.02142334	   -355.98499610	  -1061.44621660	      0.00000000	      0.00000000	      0.00000000	   1461.90033824	      1.19441168	    -26.79146968	   -331.94964600	   -338.31039861	   -760.10583553	      0.00000000	      0.00000000	     -0.00000000	   -981.62475063	      0.00000000	     -0.00000000	      0.00000000	      0.00000000	      0.00000000	      0.00000000	      0.00000000	      0.00000000	      0.00000000
      0.04000000	      0.00000000	     -0.00000000	      0.00000000	      0.00000000	      0.00000000	      0.00000000	      0.00000000	      0.00000000	      0.00000000	     -0.22020358	     29.27651596	   -484.28121948	   -355.65505771	  -1062.04731353	      0.00000000	      0.00000000	      0.00000000	   1304.96702884	      0.82820170	    -27.42084510	   -334.20736694	   -338.04178551	   -759.09378721	      0.00000000	      0.00000000	     -0.00000000	   -852.61895155	      0.00000000	     -0.00000000	      0.00000000	      0.00000000	      0.00000000	      0.00000000	      0.00000000	      0.00000000	      0.00000000
      0.05000000	      0.00000000	     -0.00000000	      0.00000000	      0.00000000	      0.00000000	      0.00000000	      0.00000000	      0.00000000	      0.00000000	      0.02365142	     29.10377121	   -481.92468262	   -356.61924347	  -1060.81630005	      0.00000000	      0.00000000	      0.00000000	   1347.16817089	      0.79839471	    -26.98518951	   -334.76638794	   -338.27215688	   -759.59840426	      0.00000000	      0.00000000	      0.00000000	   -732.49603086	      0.00000000	     -0.00000000	      0.00000000	      0.00000000	      0.00000000	      0.00000000	      0.00000000	      0.00000000	      0.00000000
      0.06000000	      0.00000000	     -0.00000000	      0.00000000	      0.00000000	      0.00000000	      0.00000000	      0.00000000	      0.00000000	      0.00000000	     -0.20199957	     29.27168846	   -483.31665039	   -355.82203454	  -1061.80773363	      0.00000000	      0.00000000	      0.00000000	   1305.34328061	      0.67367569	    -27.62122160	   -334.41641235	   -338.00730296	   -759.97455025	      0.00000000	      0.00000000	     -0.00000000	   -725.19399264	      0.00000000	     -0.00000000	      0.00000000	      0.00000000	      0.00000000	      0.00000000	      0.00000000	      0.00000000	      0.00000000
      0.07000000	      0.00000000	     -0.00000000	      0.00000000	      0.00000000	      0.00000000	      0.00000000	      0.00000000	      0.00000000	      0.00000000	     -0.53526306	     29.47866440	   -480.34399414	   -355.91655150	  -1059.96517947	      0.00000000	      0.00000000	      0.00000000	   1247.37332507	      0.86359539	    -27.70429619	   -335.55566406	   -338.04388790	   -758.85786710	      0.00000000	      0.00000000	     -0.00000000	   -925.77447636	      0.00000000	     -0.00000000	      0.00000000	      0.00000000	      0.00000000	      0.00000000	      0.00000000	      0.00000000	      0.00000000
      0.08000000	      0.00000000	     -0.00000000	      0.00000000	      0.00000000	      0.00000000	      0.00000000	      0.00000000	      0.00000000	      0.00000000	     -0.07037037	     29.14564133	   -481.51370239	   -355.65083307	  -1061.78097844	      0.00000000	      0.00000000	      0.00000000	   1377.53758335	      0.33647339	    -27.76958278	   -336.74676514	   -338.17774093	   -758.35501425	      0.00000000	      0.00000000	     -0.00000000	   -792.95559433	      0.00000000	     -0.00000000	      0.00000000	      0.00000000	      0.00000000	      0.00000000	      0.00000000	      0.00000000	      0.00000000
